<svg id="Layer_1" data-name="Layer 1" xmlns="http://www.w3.org/2000/svg" xmlns:xlink="http://www.w3.org/1999/xlink" viewBox="0 0 470.27 206.49"><defs><style>.cls-1{fill:#004990;}.cls-2{fill:#cf2127;}.cls-3{fill:none;stroke:#004990;stroke-width:0.5px;}.cls-4{fill:url(#radial-gradient);}.cls-5{fill:url(#linear-gradient);}.cls-6{fill:url(#linear-gradient-2);}.cls-7{fill:#fff;}</style><radialGradient id="radial-gradient" cx="236.94" cy="-84.6" r="85.8" gradientTransform="translate(0 134.16) scale(1 0.92)" gradientUnits="userSpaceOnUse"><stop offset="0.01" stop-color="#7b8dbe"/><stop offset="0.13" stop-color="#5d7cb3"/><stop offset="0.29" stop-color="#3b6aa6"/><stop offset="0.46" stop-color="#215b9c"/><stop offset="0.63" stop-color="#0f5195"/><stop offset="0.81" stop-color="#044b91"/><stop offset="1" stop-color="#004990"/></radialGradient><linearGradient id="linear-gradient" x1="51.4" y1="74.84" x2="168.41" y2="74.84" gradientUnits="userSpaceOnUse"><stop offset="0.01" stop-color="#7b8dbe"/><stop offset="0.04" stop-color="#7087ba"/><stop offset="0.16" stop-color="#4e74ad"/><stop offset="0.29" stop-color="#3164a3"/><stop offset="0.43" stop-color="#1c589a"/><stop offset="0.58" stop-color="#0c5094"/><stop offset="0.75" stop-color="#034b91"/><stop offset="1" stop-color="#004990"/></linearGradient><linearGradient id="linear-gradient-2" x1="297.19" y1="74.84" x2="414.18" y2="74.84" gradientUnits="userSpaceOnUse"><stop offset="0.01" stop-color="#004990"/><stop offset="1" stop-color="#7b8dbe"/></linearGradient></defs><path class="cls-1" d="M1.64,164.29c-.95-.42-1.13-.71-1.13-2,0-3.25.24-6.79.3-7.73s.24-1.54.7-1.54.6.54.6,1a12.65,12.65,0,0,0,.53,3c1.3,4.37,4.78,6,8.44,6,5.32,0,7.91-3.6,7.91-6.73,0-2.89-.88-5.61-5.79-9.44l-2.71-2.13c-6.49-5.07-8.74-9.21-8.74-14,0-6.49,5.43-11.16,13.64-11.16a28.57,28.57,0,0,1,7.85,1c.53.11.83.29.83.71,0,.76-.24,2.48-.24,7.08,0,1.3-.18,1.77-.65,1.77s-.59-.35-.59-1.06a7.1,7.1,0,0,0-1.53-3.9,7.49,7.49,0,0,0-6.44-2.89c-4.37,0-7,2.54-7,6.08,0,2.72,1.36,4.78,6.26,8.5l1.65,1.24c7.14,5.36,9.68,9.44,9.68,15a11.88,11.88,0,0,1-5.55,10.27,17.07,17.07,0,0,1-9.39,2.43A20.42,20.42,0,0,1,1.64,164.29Z"/><path class="cls-1" d="M42.9,129.35l-7.59.21c-3,.1-4.16.36-4.93,1.47a6.06,6.06,0,0,0-.86,1.78c-.11.42-.26.61-.56.61s-.46-.24-.46-.81c0-.81,1-5.44,1.07-5.86.15-.65.3-1,.61-1a11.38,11.38,0,0,0,2.18.61c1.48.15,3.41.26,5.09.26H57.6a23,23,0,0,0,3.51-.26,12,12,0,0,1,1.38-.25c.35,0,.4.31.4,1.07,0,1.07-.15,4.58-.15,5.9-.05.51-.15.82-.46.82s-.51-.26-.56-1l0-.56c-.09-1.33-1.47-2.75-6-2.85l-6.41-.16v20.86c0,4.69,0,8.71.25,10.9.15,1.42.46,2.54,2,2.74a19.82,19.82,0,0,0,2.59.21c.56,0,.82.15.82.4s-.41.51-1,.51c-3.36,0-6.56-.15-8-.15-1.17,0-4.37.15-6.41.15-.66,0-1-.15-1-.51s.21-.4.81-.4a7.83,7.83,0,0,0,1.84-.21c1-.2,1.32-1.32,1.47-2.79.26-2.14.26-6.16.26-10.85Z"/><path class="cls-1" d="M69.71,151.69c-.25,0-.35.11-.45.41l-2.75,7.27a9.83,9.83,0,0,0-.76,3.11c0,.92.45,1.58,2,1.58h.76c.61,0,.77.1.77.4s-.31.51-.87.51c-1.62,0-3.82-.15-5.39-.15-.56,0-3.36.15-6,.15-.66,0-1-.1-1-.51s.21-.4.62-.4,1.17-.06,1.57-.1c2.34-.31,3.31-2,4.33-4.59l12.77-31.95c.61-1.48.92-2,1.42-2s.77.45,1.28,1.62c1.22,2.81,9.36,23.56,12.62,31.29,1.93,4.59,3.4,5.3,4.47,5.55a11.51,11.51,0,0,0,2.14.21c.41,0,.66.05.66.4s-.46.51-2.34.51-5.54,0-9.61-.1c-.92-.05-1.53-.05-1.53-.41s.2-.4.71-.46a.82.82,0,0,0,.46-1.16l-4.07-10.79a.5.5,0,0,0-.51-.36Zm10.38-2.54c.25,0,.31-.15.25-.31l-4.57-12.56c0-.21-.11-.47-.26-.47s-.25.26-.3.47l-4.68,12.51c-.06.21,0,.36.2.36Z"/><path class="cls-1" d="M103.3,141.27c0-7.75,0-9.16-.1-10.79s-.51-2.55-2.19-2.9a9.85,9.85,0,0,0-2-.16c-.56,0-.86-.1-.86-.45s.35-.46,1.12-.46c2.7,0,5.9.15,7,.15,1.73,0,5.59-.15,7.17-.15,3.21,0,6.62.3,9.37,2.19a8.81,8.81,0,0,1,3.46,7c0,3.77-1.58,7.23-6.72,11.4,4.53,5.7,8,10.23,11,13.38,2.85,3,4.94,3.31,5.7,3.46a8.3,8.3,0,0,0,1.43.16c.4,0,.61.15.61.4,0,.41-.36.51-1,.51h-4.83c-2.86,0-4.13-.25-5.45-1-2.19-1.16-4.13-3.56-7-7.47-2-2.8-4.38-6.27-5-7a1,1,0,0,0-.92-.35l-4.42-.1c-.26,0-.41.1-.41.41v.71c0,4.73,0,8.75.26,10.89.15,1.47.46,2.59,2,2.79a21.61,21.61,0,0,0,2.49.21c.41,0,.61.15.61.4s-.35.51-1,.51c-2.94,0-6.71-.15-7.48-.15-1,0-4.16.15-6.2.15-.66,0-1-.15-1-.51s.21-.4.81-.4a7.83,7.83,0,0,0,1.84-.21c1-.2,1.27-1.32,1.47-2.79.26-2.14.26-6.16.26-10.85Zm6,4c0,.57.11.78.46.93a13.6,13.6,0,0,0,3.86.51c2,0,2.7-.21,3.62-.87,1.53-1.11,3-3.46,3-7.63,0-7.23-4.78-9.31-7.79-9.31a11.31,11.31,0,0,0-2.69.2c-.35.1-.46.31-.46.72Z"/><path class="cls-1" d="M155.92,120.61c.17-1,.52-1.54,1-1.54s.83.3,1.59,1.83l16.12,33.29,16.05-33.7c.48-.95.77-1.42,1.3-1.42s.89.6,1.07,1.83l5.37,36.48c.53,3.72,1.12,5.43,2.89,6a11.92,11.92,0,0,0,3.66.6c.53,0,.95.05.95.41s-.72.65-1.54.65c-1.48,0-9.62-.18-12-.36-1.36-.11-1.72-.29-1.72-.65s.24-.46.65-.65.53-.88.3-2.53l-3.54-26h-.24L175,161.63c-1.36,2.78-1.65,3.31-2.19,3.31s-1.11-1.18-2.06-2.95c-1.41-2.72-6.08-11.75-6.79-13.4-.53-1.24-4.07-8.69-6.13-13.11h-.24L154.5,159a22.93,22.93,0,0,0-.18,2.77c0,1.13.77,1.65,1.77,1.89a11.94,11.94,0,0,0,2.48.3c.47,0,.89.11.89.41,0,.53-.53.65-1.42.65-2.47,0-5.13-.18-6.2-.18s-4,.18-5.84.18c-.59,0-1.07-.12-1.07-.65,0-.3.36-.41.95-.41a7.45,7.45,0,0,0,1.77-.18c1.65-.36,2.13-2.66,2.42-4.66Z"/><path class="cls-1" d="M206.65,145.74c0-8.7,5.74-20,21-20,12.67,0,20.55,7.39,20.55,19s-8.13,20.87-21.06,20.87C212.55,165.69,206.65,154.74,206.65,145.74Zm34.44,1c0-11.4-6.56-18.47-14.9-18.47-5.86,0-12.53,3.25-12.53,15.92,0,10.58,5.86,19,15.63,19C232.85,163.15,241.09,161.42,241.09,146.71Z"/><path class="cls-1" d="M255.64,141.27c0-7.75,0-9.16-.1-10.79s-.51-2.55-2.18-2.9a9.85,9.85,0,0,0-2-.16c-.56,0-.86-.1-.86-.45s.35-.46,1.11-.46c2.71,0,5.9.15,7.44.15,1.21,0,4.42-.15,6.25-.15.77,0,1.12.1,1.12.46s-.3.45-.81.45a7.12,7.12,0,0,0-1.48.16c-1.37.24-1.78,1.12-1.88,2.9s-.09,3-.09,10.79v7.12c0,7.37,1.46,10.47,4,12.51a9.39,9.39,0,0,0,6.36,2.09,10,10,0,0,0,7-2.75c2.8-2.8,2.95-7.37,2.95-12.62v-6.35c0-7.75,0-9.16-.1-10.79s-.51-2.55-2.19-2.9a9.1,9.1,0,0,0-1.83-.16c-.56,0-.87-.1-.87-.45s.36-.46,1.07-.46c2.6,0,5.81.15,5.85.15.62,0,3.82-.15,5.8-.15.72,0,1.07.1,1.07.46s-.3.45-.91.45a7.12,7.12,0,0,0-1.48.16c-1.37.24-1.78,1.12-1.88,2.9s-.1,3-.1,10.79v5.44c0,5.64-.56,11.65-4.84,15.31a15.15,15.15,0,0,1-10.58,3.67c-2.7,0-7.58-.16-11.3-3.52-2.59-2.34-4.53-6.09-4.53-13.48Z"/><path class="cls-1" d="M302.5,158.05c.11,4,.77,5.29,1.79,5.65a8.25,8.25,0,0,0,2.65.36c.55,0,.86.1.86.4s-.46.51-1.17.51c-3.31,0-5.34-.15-6.31-.15-.46,0-2.85.15-5.5.15-.66,0-1.11-.05-1.11-.51,0-.3.3-.4.81-.4a9.2,9.2,0,0,0,2.29-.26c1.32-.4,1.53-1.88,1.58-6.3l.45-30.13c0-1,.16-1.73.67-1.73s1,.66,1.88,1.58c.61.66,8.34,8.95,15.78,16.33,3.45,3.46,10.33,10.79,11.19,11.6h.25l-.51-22.84c-.05-3.11-.51-4.07-1.73-4.58a8.17,8.17,0,0,0-2.7-.31c-.6,0-.8-.15-.8-.45s.55-.46,1.31-.46c2.65,0,5.1.15,6.16.15.56,0,2.5-.15,5-.15.67,0,1.18,0,1.18.46s-.31.45-.92.45a5.25,5.25,0,0,0-1.52.16c-1.43.4-1.84,1.47-1.88,4.32l-.57,32.1c0,1.13-.2,1.58-.66,1.58s-1.17-.56-1.72-1.12c-3.22-3-9.73-9.72-15-15C308.67,144,303,137.65,302.1,136.68H302Z"/><path class="cls-1" d="M353.08,129.35l-7.58.21c-2.95.1-4.17.36-4.93,1.47a6.44,6.44,0,0,0-.87,1.78c-.1.42-.25.61-.56.61s-.46-.24-.46-.81c0-.81,1-5.44,1.07-5.86.15-.65.31-1,.62-1a11.63,11.63,0,0,0,2.18.61c1.48.15,3.41.26,5.09.26h20.14a23,23,0,0,0,3.52-.26,12,12,0,0,1,1.38-.25c.35,0,.4.31.4,1.07,0,1.07-.15,4.58-.15,5.9-.05.51-.16.82-.46.82s-.51-.26-.56-1l-.05-.56c-.1-1.33-1.47-2.75-6-2.85l-6.41-.16v20.86c0,4.69,0,8.71.25,10.9.15,1.42.46,2.54,2,2.74a20.11,20.11,0,0,0,2.6.21c.56,0,.82.15.82.4s-.41.51-1,.51c-3.35,0-6.56-.15-8-.15-1.17,0-4.38.15-6.41.15-.66,0-1-.15-1-.51s.21-.4.81-.4a7.67,7.67,0,0,0,1.83-.21c1-.2,1.32-1.32,1.48-2.79.25-2.14.25-6.16.25-10.85Z"/><path class="cls-1" d="M379.89,151.69c-.24,0-.35.11-.45.41l-2.75,7.27a10.12,10.12,0,0,0-.76,3.11c0,.92.46,1.58,2,1.58h.77c.61,0,.76.1.76.4s-.3.51-.86.51c-1.63,0-3.82-.15-5.4-.15-.55,0-3.36.15-6,.15-.67,0-1-.1-1-.51s.21-.4.61-.4,1.17-.06,1.58-.1c2.34-.31,3.31-2,4.32-4.59l12.78-31.95c.61-1.48.92-2,1.42-2s.76.45,1.27,1.62c1.23,2.81,9.36,23.56,12.62,31.29,1.94,4.59,3.41,5.3,4.48,5.55a11.44,11.44,0,0,0,2.14.21c.41,0,.66.05.66.4s-.46.51-2.34.51-5.55,0-9.62-.1c-.91-.05-1.52-.05-1.52-.41s.2-.4.71-.46a.83.83,0,0,0,.46-1.16l-4.07-10.79a.51.51,0,0,0-.52-.36Zm10.39-2.54c.25,0,.3-.15.25-.31L386,136.28c0-.21-.1-.47-.25-.47s-.26.26-.3.47l-4.68,12.51c-.05.21,0,.36.2.36Z"/><path class="cls-1" d="M413.79,141.27c0-7.75,0-9.16-.1-10.79s-.62-2.6-1.73-2.86a7.37,7.37,0,0,0-1.84-.2c-.5,0-.81-.1-.81-.51s.41-.4,1.22-.4c1.94,0,5.14.15,6.62.15,1.27,0,4.27-.15,6.2-.15.67,0,1.07.1,1.07.4s-.3.51-.81.51a7.79,7.79,0,0,0-1.52.16c-1.38.24-1.78,1.12-1.89,2.9s-.1,3-.1,10.79v8.94c0,4.94,0,9,.21,11.15.15,1.37.5,2.29,2,2.49a19.83,19.83,0,0,0,2.6.21c.55,0,.8.15.8.4s-.4.51-1,.51c-3.36,0-6.56-.15-7.94-.15-1.17,0-4.37.15-6.41.15-.66,0-1-.15-1-.51s.21-.4.82-.4a7.73,7.73,0,0,0,1.83-.21c1-.2,1.32-1.06,1.48-2.54.25-2.14.25-6.16.25-11.1Z"/><path class="cls-1" d="M436.28,158.05c.1,4,.76,5.29,1.78,5.65a8.2,8.2,0,0,0,2.64.36c.56,0,.87.1.87.4s-.46.51-1.17.51c-3.31,0-5.34-.15-6.31-.15-.46,0-2.85.15-5.5.15-.66,0-1.12-.05-1.12-.51,0-.3.31-.4.82-.4a9.25,9.25,0,0,0,2.29-.26c1.32-.4,1.53-1.88,1.58-6.3l.45-30.13c0-1,.16-1.73.66-1.73s1,.66,1.89,1.58c.61.66,8.35,8.95,15.77,16.33,3.47,3.46,10.33,10.79,11.2,11.6h.25l-.51-22.84c-.05-3.11-.51-4.07-1.73-4.58a8.14,8.14,0,0,0-2.69-.31c-.62,0-.82-.15-.82-.45s.56-.46,1.32-.46c2.65,0,5.09.15,6.16.15.55,0,2.49-.15,5-.15.67,0,1.18,0,1.18.46s-.31.45-.92.45a5.25,5.25,0,0,0-1.52.16c-1.43.4-1.84,1.47-1.89,4.32l-.56,32.1c0,1.13-.2,1.58-.66,1.58s-1.17-.56-1.73-1.12c-3.21-3-9.72-9.72-15-15-5.54-5.49-11.2-11.85-12.11-12.82h-.15Z"/><path class="cls-2" d="M7.67,203.12a12.26,12.26,0,0,1-.22-17.61c2.23-2,5.17-3.28,9.78-3.28a29.85,29.85,0,0,1,4.48.31c1.18.15,2.17.44,3.1.52.34,0,.47.19.47.37s-.1.63-.16,1.71,0,2.73-.09,3.35c0,.46-.1.71-.37.71s-.31-.25-.31-.68a4.41,4.41,0,0,0-1.21-2.85c-1-1.08-3.44-1.93-6.28-1.93A8.05,8.05,0,0,0,11,185.67c-2.26,2.07-2.84,5-2.84,8,0,7.36,5.59,11,9.74,11,2.75,0,4.43-.32,5.66-1.74a5.2,5.2,0,0,0,1.06-2c.09-.49.15-.62.4-.62s.28.22.28.47a28.9,28.9,0,0,1-.68,4.1,1.1,1.1,0,0,1-.81.91,18.1,18.1,0,0,1-5.57.71C14,206.49,10.48,205.56,7.67,203.12Z"/><path class="cls-2" d="M86.73,198c-.16,0-.22.07-.28.25l-1.67,4.43a5.87,5.87,0,0,0-.47,1.88c0,.56.28,1,1.24,1H86c.37,0,.46.06.46.25s-.19.31-.53.31c-1,0-2.32-.1-3.28-.1-.34,0-2,.1-3.65.1-.4,0-.59-.06-.59-.31s.13-.25.38-.25a9.3,9.3,0,0,0,1-.06c1.43-.18,2-1.23,2.64-2.78l7.76-19.44c.37-.9.56-1.24.87-1.24s.46.28.77,1c.75,1.7,5.69,14.32,7.68,19,1.17,2.78,2.07,3.22,2.72,3.38a7,7,0,0,0,1.3.12c.25,0,.4,0,.4.25s-.28.31-1.42.31-3.38,0-5.85-.06c-.56,0-.93,0-.93-.25s.13-.25.43-.28a.5.5,0,0,0,.28-.72l-2.48-6.55a.3.3,0,0,0-.3-.22ZM93,196.43c.15,0,.19-.09.15-.18l-2.78-7.65c0-.11-.06-.28-.15-.28s-.16.17-.19.28l-2.85,7.62c0,.12,0,.21.13.21Z"/><path class="cls-2" d="M159.75,191.64c0-4.71,0-5.57-.06-6.56s-.31-1.55-1.33-1.77a6.57,6.57,0,0,0-1.21-.09c-.34,0-.52-.06-.52-.28s.21-.28.67-.28c1.65,0,3.6.09,4.46.09,1.27,0,3.06-.09,4.49-.09,3.87,0,5.26,1.3,5.75,1.77a5.33,5.33,0,0,1,1.55,3.68,7.27,7.27,0,0,1-7.61,7.48c-.15,0-.5,0-.65,0s-.37-.07-.37-.28.22-.34.87-.34c1.73,0,4.14-1.95,4.14-5.11a6,6,0,0,0-1.82-4.64A4.69,4.69,0,0,0,165,184a4,4,0,0,0-1.2.13c-.16.07-.25.25-.25.59v12.38c0,2.84,0,5.28.15,6.62.1.86.28,1.55,1.21,1.67a13.32,13.32,0,0,0,1.58.12c.34,0,.49.09.49.25s-.25.31-.58.31c-2,0-4-.1-4.8-.1s-2.66.1-3.9.1c-.41,0-.62-.1-.62-.31s.12-.25.5-.25a5.2,5.2,0,0,0,1.11-.12c.62-.12.77-.81.9-1.7.15-1.31.15-3.75.15-6.59Z"/><path class="cls-2" d="M232.62,191.64c0-4.71,0-5.57-.06-6.56s-.37-1.58-1.05-1.74a4.58,4.58,0,0,0-1.12-.12c-.31,0-.49-.06-.49-.31s.25-.25.74-.25c1.17,0,3.13.09,4,.09s2.6-.09,3.78-.09c.4,0,.65.06.65.25s-.19.31-.49.31a5.39,5.39,0,0,0-.93.09c-.84.16-1.08.68-1.15,1.77s-.07,1.85-.07,6.56v5.45c0,3,0,5.44.14,6.77.09.84.3,1.4,1.23,1.52a13.32,13.32,0,0,0,1.58.12c.34,0,.49.09.49.25s-.24.31-.59.31c-2,0-4-.1-4.82-.1s-2.67.1-3.9.1c-.4,0-.62-.1-.62-.31s.12-.25.5-.25a5.2,5.2,0,0,0,1.11-.12c.62-.12.8-.65.9-1.55.15-1.3.15-3.74.15-6.74Z"/><path class="cls-2" d="M303.33,184.39l-4.61.13c-1.8.07-2.54.21-3,.9a3.56,3.56,0,0,0-.53,1.08c-.07.25-.15.37-.34.37s-.28-.15-.28-.5.59-3.31.65-3.54c.09-.42.19-.6.37-.6a7.19,7.19,0,0,0,1.33.37c.89.09,2.08.15,3.1.15h12.25a15.27,15.27,0,0,0,2.13-.15,8.07,8.07,0,0,1,.84-.15c.22,0,.25.18.25.65,0,.64-.1,2.78-.1,3.58,0,.32-.09.51-.27.51s-.32-.16-.34-.62l0-.35c-.06-.8-.9-1.67-3.64-1.73l-3.91-.1v12.7c0,2.84,0,5.28.16,6.62.09.86.28,1.55,1.21,1.67a13.32,13.32,0,0,0,1.57.12c.34,0,.5.09.5.25s-.24.31-.58.31c-2.05,0-4-.1-4.87-.1-.71,0-2.66.1-3.9.1-.4,0-.62-.1-.62-.31s.13-.25.5-.25a5.05,5.05,0,0,0,1.11-.12c.62-.12.81-.81.9-1.7.16-1.31.16-3.75.16-6.59Z"/><path class="cls-2" d="M373.17,198c-.16,0-.23.07-.28.25l-1.68,4.43a5.79,5.79,0,0,0-.46,1.88c0,.56.27,1,1.24,1h.47c.36,0,.45.06.45.25s-.18.31-.52.31c-1,0-2.32-.1-3.28-.1-.34,0-2.05.1-3.66.1-.39,0-.58-.06-.58-.31s.12-.25.37-.25.71,0,1-.06c1.43-.18,2-1.23,2.63-2.78l7.77-19.44c.37-.9.56-1.24.87-1.24s.46.28.77,1c.74,1.7,5.69,14.32,7.67,19,1.18,2.78,2.08,3.22,2.72,3.38a7.05,7.05,0,0,0,1.3.12c.25,0,.41,0,.41.25s-.28.31-1.42.31-3.38,0-5.86-.06c-.55,0-.92,0-.92-.25s.12-.25.43-.28a.51.51,0,0,0,.28-.72l-2.48-6.55a.3.3,0,0,0-.3-.22Zm6.31-1.55c.15,0,.19-.09.15-.18l-2.78-7.65c0-.11-.07-.28-.16-.28s-.15.17-.19.28l-2.84,7.62c0,.12,0,.21.12.21Z"/><path class="cls-2" d="M450.06,197.09c0,3.95,0,6.09.65,6.65s1.33.68,3.74.68c1.64,0,2.84,0,3.62-.86a4,4,0,0,0,.81-1.86c0-.28.09-.47.34-.47s.24.16.24.53a24,24,0,0,1-.46,3.56c-.18.68-.34.82-1.95.82-2.23,0-3.84,0-5.23-.08s-2.51-.1-3.77-.1c-.35,0-1,0-1.77,0s-1.52.06-2.14.06c-.4,0-.61-.1-.61-.31s.12-.25.49-.25a5.13,5.13,0,0,0,1.11-.12c.63-.12.78-.81.9-1.7.16-1.31.16-3.75.16-6.59v-5.45c0-4.71,0-5.57-.06-6.56s-.31-1.55-1.34-1.77a4.62,4.62,0,0,0-1-.09c-.34,0-.52-.06-.52-.28s.22-.28.68-.28c1.46,0,3.4.09,4.24.09s3-.09,4.21-.09c.43,0,.64.06.64.28s-.18.28-.55.28a8.53,8.53,0,0,0-1.21.09c-.84.16-1.08.68-1.14,1.77s-.06,1.85-.06,6.56Z"/><line class="cls-3" y1="172.72" x2="467.73" y2="172.72"/><polyline class="cls-4" points="218.38 37.29 228.37 60.76 238.57 37.35 341.29 113.39 227.65 0 132.58 112.57"/><polyline class="cls-5" points="132.12 59.98 163.09 78.14 165.99 78.14 168.41 74.16 129.89 36.37 51.4 113.31"/><polyline class="cls-6" points="333.47 59.98 302.5 78.14 299.6 78.14 297.19 74.16 335.7 36.37 414.19 113.31"/><polygon class="cls-7" points="228.13 12.97 230.91 20.1 238.55 20.54 232.63 25.39 234.57 32.8 228.13 28.67 221.69 32.8 223.62 25.39 217.7 20.54 225.34 20.1 228.13 12.97"/></svg>